<?xml version="1.0" encoding="UTF-8"?>
<svg id="Layer_1" xmlns="http://www.w3.org/2000/svg" version="1.1" viewBox="0 0 792.4 781.9">
  <!-- Generator: Adobe Illustrator 30.3.0, SVG Export Plug-In . SVG Version: 2.1.3 Build 182)  -->
  <defs>
    <style>
      .st0 {
        fill: none;
        stroke: #000;
        stroke-miterlimit: 10;
        stroke-width: 23px;
      }
    </style>
  </defs>
  <path d="M132.7,576.4l17-16.4c24.8-23.8,52.9-43.6,87.2-50.3l58.9,47.4,11.7,8.8c-4.5,17.3-9.4,33.8-17.1,49.9l-28.2,58.8c-1.7,3.4-2.9,8.1-.9,11.3s5.4,5.9,9.2,6l84.2.3c-14.3-20.7-27.9-22.2-48.9-26.8l-18.6-4.1,8.1-16.9c11.7-24.5,21.6-49.7,28.7-75.5l50.7-3c-3.5,13-9,24.7-15.3,36.8-9.6,16.4-20.2,30.8-32.9,46.5l44.9,9.4c18.7,4,34.2,15.5,42.2,33.5l43.5-.2c-14-8.5-26-16.7-36.2-28.8-16.9-19.8-26.1-44.9-25.2-71.1,36.1,1.4,66.3,22.1,82.6,53.1l-5.7-28.7c-5.2-20.2-1.1-41.4,12.9-57.7,14.1,17.1,18,39.2,11.8,59.7-1.8,7-4.1,13.1-4.4,21,18.3-35.7,51-60.4,90.6-67.7,5.8-1.1,9.7,3.9,9.8,8.9.2,6-3,9.4-8.4,10.6-19.1,4.3-36.5,12.8-51.2,25.6-9.8,9.4-18.7,19-23.6,32.6,20.5-17.1,45.6-25.3,71.4-22.2-1,12.5-5.1,22.7-10.1,33.9l2.6.5c0,6.8,2.7,12.9,8.7,17.7-20.4,14.6-40.8,28.1-63.6,38.9-31.4,14.8-64.1,23.5-98.4,28.7s-80.5,4.5-120.5-4.7c-60.6-13.9-117.4-42.6-162.1-86.2-55.1-53.7-91-124.6-101.8-201.3,9.6-6.1,15-14.9,18-25.6l2.9,19.8c2.8-45.7,19.4-89.2,48.5-125.1l22.5-25.6c8.8-10.1,10.2-29.6,19.9-48.1,9.2-17.6,22.8-32.3,40.9-40.9,36.1-17.3,78.5-10.3,108.1,16s9,8,14.2,10.7c7.2,3.8,13.6,8.1,14.7,17,1.9,15.3-13.5,20.9-4.6,28.2l12.6,10.4c4,3.3,3.7,9.7,5.7,14.2l6.5,14.5c5.6,12.5,5.8,25.6,0,38-7.8,16.6-23,28.1-41.6,30.3s-21,.6-31.5-1.2c-1.8-.3-4.9-3.2-6.3-4.5l-29.5-28.5c-19.3-16.7-44.1-25.2-69.3-20.5s-11.5,2.8-13.9,8.1c.3,2.4,5,4,7.7,3.9,12-.3,23.1.4,34.5,3.5,16.4,5.5,29.6,15.1,42,27.2l97.5,95.7,196.2,20.4c8.1-12,19.7-18.5,33.5-22.4,11.6-3.3,21.4-10.5,32.4-15.4,1.9-1.3,5.8-2.7,7.7-2,3.9,1.5,5.9,5.4,6.4,8.7s-1.1,8.7-4.4,11l-22.6,15.4c-1,.7-2.6,3.2-2.7,4.4s2.5,4,4,4.3c13.9,2.6,27.4,6.5,41.6,6.4,7.9-.5,16.1-4.5,23.9-6.3s10.6-5.3,14.1-10l13.9-18.1c3.7-4.8,10.6-6.7,15.8-3.5s3.3,2.7,3.7,3.9,0,4.7-.9,6.1l-19.3,29.7c-2.6,4-5.7,7.8-10.1,9.9l-41.4,20.6c-5.6,2.8-12.3,2.6-18.6,2.6-21.4,0-41.7-2.1-63.2-.6l-214.8,14.9c-10.9.8-18.9-3-26.9-9.6l-25.8-21.3-95.3-76.5c-6-4.8-10.9-9-18.4-13.1-.4,4.8,1.1,8.3,3.4,12.1,7.3,12,16.5,22.4,27.5,31.4l26.3,21.5c-36.2,11.5-71.8,36.8-87.7,70.9-1.2,2.6-1.9,4-.6,8.7ZM205.7,273.2c-1.8-3.1-6.9-4.2-9.7-2.8l-10.2,5.1c-.6-7.1,3.7-13.1,9.2-15.8,11.4-5.5,20.9,1.8,28.1,13,1.7-3.5,4.7-9.8,3-13.7-5.5-12.6-20.4-17.1-33-12.3-16.6,6.2-23.6,24.6-17.8,41s11.2,20.3,22.5,24.6,11.5,2.8,15.6-.4,4.4-8,5.1-12.5c-7.9,2.2-14.6-1.4-17.3-8.7-2.3-6.1.7-11.7,4.5-17.5ZM322.3,302.8c-.7-2.2-4.3-4.6-5.9-6.1l-11.2-10.2c-4.6-4.2-9.9,6.5-18.8,1s-4.6-4.6-4.7-7.2c-.2-8.3,10.5-12.5,20.3-14.6,5.5-1.2,9.1-6.2,6.9-11.6s-19.8-2.7-29.1,1.5-19.5,21.7-14.7,35.2c5.2,14.5,20.5,17.4,22.5,23.2,1.7,4.9-12.5,23.8-.5,45.6,4.2,7.6,11.3,11.7,20.1,10.6,9.7-1.2,17-7.4,21.9-15.4,6-9.8,6.6-20.8,1-31-3.6-6.5-5.6-12.9-7.9-20.9ZM170.2,659.2c12.6,10.3,25.3,18.6,39.6,27.3l13.8-63.5c3.6-16.4,9.6-31.6,16-47l7.3-17.6c-15.5,6.6-29.3,30.8-33.4,45.5l-9.9,35.3c-3.6,13-19.8,18.4-33.4,19.9ZM468.9,676.1c-5.7-26.8-24.7-50.9-51.8-60.6,2.7,13.6,9.9,24.6,18.3,35.2,9.2,10.5,20.1,18.7,33.5,25.4ZM501,692.3c25.2-4.2,46.5-21.3,55.7-45.5-24.9,5.9-45,22-55.7,45.5ZM393.7,692c-4.1-5.6-7-8.1-11.3-11.6-6.8-3-13.7-5.1-21.1-6.1l11.6,18,20.8-.3Z"/>
  <path d="M752.7,351.6l-30-14.5,2.6-27.1,25,10.7c2.5,1-3.4,6.5-.9,6.9-2.2-3.8-.2-12.8-4.2-15.2-8.8-5.5-.8-12.4,0-14.8l-18.1-6.5-19.4-26,8.1-27.1-14.8-13.7c-2.6,2.1-4.2,5.2-5,8.1l-7.5,27.8-43.4-1.5c12.2-9.7,28.4-27.4,15.9-34-1.7-.8-4.9-1.9-6.5-1.3-6,2.4-10.5,22.4-34,20.8l-20-1.3c-7.7,4.1-14.8,10.7-18.4,18.5-5.5,11.9-3.2,23.6-25.1,24.5l5-24.5c1.1-5.2,2.4-10.2,5.3-14.6l15.4-23.6c2.5-3.8,5.4-5.8,9.7-7.4l60.4-22.6c3.5-1.3,5.8-5.1,8.3-7.8l19.2-2.9c3.8-4.3-8.3-14.3-12.2-17.4-3.5-2.8-4-12.6-7.7-8.3-6,6.8-10,15.6-19.3,19.3l-60.9,24.5c-4.1,1.6-7.9,4.3-10.1,7.9l-21,33.1c-2.4,3.7-2.5,9.6-3.8,14.5l-96.7-2.9c-9.9-.3-17.5,8-18.2,17.5l-.9,11.5-34-1.3-8-24.3-2.5-10.4-10.7-.5c-3-.1-5,3-5.1,5.9l-.7,28.1c-3.3-.2-8.2-.3-10,1.8-2.8,3.6-2.8,8.6-1.7,12.8.7,2.9,3.8,5,6.7,5.1l65.7,2.9c1.5,8.1,6.7,14.9,14.6,16l30.7,4.2c7.6,1,15.2,3.4,21.4,7.5,6.9,4.5,12.9,4.9,21,3,6-1.4,13.4.4,19.7,1.4-6.1,25.4-19.5,46.8-38.1,64.2-8.1,7.6-16.3,13.4-25.7,19.6-1.7,1.1-1.1,6,0,7.9l25.7,42.3c2.6,4.3,7.7,5.9,12,3.2,39.1-24.4,68.1-60.9,83.4-104.3,3,8,8.6,13.5,16.6,14.3l27,2.7c4.5.5,9-.2,13.9-.9l10.4,45.7c1.1,4.8,1.7,9.2,5.1,11.8,3.6,2.8,9,4.2,13.4,2.6l25.4-8.8c8.8-3.1,12.9-13.9,10.3-22.8l-11-38.5c-1.9-6.7-.2-14.3,5.5-18,2.2-.7,6.9.5,9.3,1.9l36.7,23.8c.2-7.6-5.2-12.7-5.1-20.3-.1-.2,1.5-9.1,1.4-9.2ZM447,270.3c.2-1.4,3.7-2.4,5.2-2.3l48.2,1.6-.6,10.3-53.7-2.3.9-7.2ZM508.6,318.8l-10.9-5.6c-6.3-3.2-12.8-5.2-19.9-6.1l-30.9-3.9c-2.5-3.7-2.5-9-1.1-12.5l64.8,3.2-2,24.9ZM565.5,386.4c-13.9,26.1-32.6,47.1-56.7,64.3l-15.6-25.2c30.7-21.5,52.4-52.8,61.5-89.2l28.8,3.5c-4.1,16.6-10,31.4-18.1,46.7ZM639.4,369.9l-25.1-2.3c-3.8-.4-7-4.3-6.8-8l1.3-16.6,17.4,1.8c1.7,12-10.4,18.3.5,19.7,8.9-2.5,11.5-8.4,16-17.6l.9,19.1c0,1.4-2.8,4.1-4.3,4ZM695.8,418.5l-16.3,5.8-10.9-44.8c-1.2-5-4-8.8-8-12.6v-17.9s29.4,3.5,29.4,3.5c-3.3,6.6-5.6,13.5-3.8,20.3l10.9,40.3c.3,1.3,0,5.1-1.4,5.5ZM704,335.8l-178.7-20.6,3.2-43.9,13.7.9-3.8,17.6c-1.1,5.3,1,9.7,6.3,11.7,10.7,4.1,22.9,3.3,33.5-2,9.8-4.9,15-14.4,18-25.4l97.5,4,8.9,11.6-99.2-4.1c-4.6,6.8-6.8,14-2.1,14.3l106.1,5.1-3.4,30.8Z"/>
  <path d="M484,369.5l-68.7,94.6-73.8-7.9-38.2-37.5-13.4-13.8c14.8,0,27.5-1.8,40.5-9l28.4,20.8,90.6-84.7,16.8,1.8c8.4.9,16,3.4,23,7.9s18.4,6.7,29.9,3.5c-1.6,4.5-3.7,10.3-6.6,13.8-10.4,6.5-23.4,3.5-28.6,10.6Z"/>
  <path d="M656.1,479.5c-7.4,9.5-30.5,12.4-42.9,10l18.1-10.9c8.4-5.1,15.7-24,27.5-23.3,4.4.3,8.3,1.9,11.1,6.6l-13.7,17.6Z"/>
  <circle class="st0" cx="392.8" cy="386.4" r="355"/>
</svg>